<svg xmlns="http://www.w3.org/2000/svg" xmlns:xlink="http://www.w3.org/1999/xlink" width="1920" zoomAndPan="magnify" viewBox="0 0 1440 809.999993" height="1080" preserveAspectRatio="xMidYMid meet" version="1.0"><defs><clipPath id="ae4c87e74e"><path d="M 204.515625 652 L 231 652 L 231 655 L 204.515625 655 Z M 204.515625 652 " clip-rule="nonzero"/></clipPath><clipPath id="f0b93b4a41"><path d="M 279 678 L 284 678 L 284 711.925781 L 279 711.925781 Z M 279 678 " clip-rule="nonzero"/></clipPath><clipPath id="ac82c7fbc8"><path d="M 297 563.425781 L 308 563.425781 L 308 594 L 297 594 Z M 297 563.425781 " clip-rule="nonzero"/></clipPath><clipPath id="d60b26fc19"><path d="M 1151.570312 329 L 1178 329 L 1178 333 L 1151.570312 333 Z M 1151.570312 329 " clip-rule="nonzero"/></clipPath><clipPath id="9e863a32a1"><path d="M 1227 356 L 1232 356 L 1232 389.800781 L 1227 389.800781 Z M 1227 356 " clip-rule="nonzero"/></clipPath><clipPath id="c784a04156"><path d="M 1245 239.800781 L 1256 239.800781 L 1256 270 L 1245 270 Z M 1245 239.800781 " clip-rule="nonzero"/></clipPath><clipPath id="c93e5938b9"><path d="M 1284 327 L 1316.570312 327 L 1316.570312 331 L 1284 331 Z M 1284 327 " clip-rule="nonzero"/></clipPath><clipPath id="78c5d646c3"><path d="M 1296 505.734375 L 1309 505.734375 L 1309 514 L 1296 514 Z M 1296 505.734375 " clip-rule="nonzero"/></clipPath><clipPath id="a011d25b3f"><path d="M 1234.042969 595 L 1245 595 L 1245 603 L 1234.042969 603 Z M 1234.042969 595 " clip-rule="nonzero"/></clipPath><clipPath id="a15e736a13"><path d="M 1319 665 L 1358.542969 665 L 1358.542969 711.984375 L 1319 711.984375 Z M 1319 665 " clip-rule="nonzero"/></clipPath><clipPath id="c244cf69ac"><path d="M 129.261719 367 L 146 367 L 146 384 L 129.261719 384 Z M 129.261719 367 " clip-rule="nonzero"/></clipPath><clipPath id="99db7532d8"><path d="M 264.664062 271.417969 L 279.777344 271.417969 L 279.777344 287.445312 L 264.664062 287.445312 Z M 264.664062 271.417969 " clip-rule="nonzero"/></clipPath><clipPath id="3d874a6be4"><path d="M 264.242188 271.417969 L 279.777344 271.417969 L 279.777344 287.445312 L 264.242188 287.445312 Z M 264.242188 271.417969 " clip-rule="nonzero"/></clipPath><clipPath id="42c497b900"><path d="M 137.695312 417 L 153.304688 417 L 153.304688 433.335938 L 137.695312 433.335938 Z M 137.695312 417 " clip-rule="nonzero"/></clipPath><clipPath id="b95ae2e31e"><path d="M 137.695312 417 L 153.726562 417 L 153.726562 433.335938 L 137.695312 433.335938 Z M 137.695312 417 " clip-rule="nonzero"/></clipPath></defs><rect x="-144" width="1728" fill="#ffffff" y="-80.999999" height="971.999992" fill-opacity="1"/><rect x="-144" width="1728" fill="#ffffff" y="-80.999999" height="971.999992" fill-opacity="1"/><path fill="#f1a03c" d="M 289.230469 604.257812 C 291.160156 572.371094 294.078125 571.222656 294.492188 571.222656 C 294.523438 571.222656 294.539062 571.230469 294.539062 571.230469 C 297.714844 573.382812 289.230469 604.257812 289.230469 604.257812 " fill-opacity="1" fill-rule="nonzero"/><path fill="#f1a03c" d="M 290.40625 626.039062 C 290.550781 610.808594 293.121094 609.949219 293.699219 609.949219 C 293.773438 609.949219 293.816406 609.964844 293.816406 609.964844 C 297.050781 611.460938 290.40625 626.039062 290.40625 626.039062 " fill-opacity="1" fill-rule="nonzero"/><path fill="#f1a03c" d="M 279.546875 633.535156 C 262.664062 630.394531 264.300781 627.390625 264.300781 627.390625 C 264.585938 626.984375 265.085938 626.808594 265.734375 626.808594 C 269.757812 626.808594 279.546875 633.535156 279.546875 633.535156 " fill-opacity="1" fill-rule="nonzero"/><path fill="#f1a03c" d="M 262.425781 659.335938 C 261.921875 659.335938 261.757812 659.085938 261.757812 659.085938 C 260.085938 655.9375 274.199219 648.355469 274.199219 648.355469 C 266.773438 657.921875 263.632812 659.335938 262.425781 659.335938 " fill-opacity="1" fill-rule="nonzero"/><path fill="#f1a03c" d="M 294.3125 669.757812 C 290.753906 669.507812 291.78125 653.519531 291.78125 653.519531 C 297.730469 669.628906 294.3125 669.757812 294.3125 669.757812 " fill-opacity="1" fill-rule="nonzero"/><path fill="#f1a03c" d="M 277.835938 658.199219 C 277.527344 658.199219 277.390625 658.066406 277.390625 658.066406 C 275.121094 655.3125 287.417969 645.042969 287.417969 645.042969 C 281.632812 656.808594 278.835938 658.199219 277.835938 658.199219 " fill-opacity="1" fill-rule="nonzero"/><path fill="#f1a03c" d="M 300.757812 632.929688 C 308.503906 623.992188 311.75 622.601562 313.019531 622.601562 C 313.59375 622.601562 313.765625 622.886719 313.765625 622.886719 C 315.261719 626.125 300.757812 632.929688 300.757812 632.929688 " fill-opacity="1" fill-rule="nonzero"/><path fill="#f1a03c" d="M 346.324219 614.402344 C 354.765625 608.75 358.539062 607.59375 360.210938 607.59375 C 361.363281 607.59375 361.519531 608.144531 361.519531 608.144531 C 362.109375 611.660156 346.324219 614.402344 346.324219 614.402344 " fill-opacity="1" fill-rule="nonzero"/><path fill="#f1a03c" d="M 314.027344 593.730469 C 322.8125 572.203125 326.042969 570.59375 326.8125 570.59375 C 326.949219 570.59375 327.007812 570.644531 327.007812 570.644531 C 329.410156 573.460938 314.027344 593.730469 314.027344 593.730469 " fill-opacity="1" fill-rule="nonzero"/><path fill="#f1a03c" d="M 310.5625 653.90625 C 307.058594 653.90625 298.917969 642.894531 298.917969 642.894531 C 313.855469 651.371094 311.324219 653.675781 311.324219 653.675781 C 311.105469 653.832031 310.851562 653.90625 310.5625 653.90625 " fill-opacity="1" fill-rule="nonzero"/><path fill="#f1a03c" d="M 299.84375 709.585938 C 296.109375 708.722656 292.914062 676.859375 292.914062 676.859375 C 303.28125 709.496094 299.882812 709.585938 299.84375 709.585938 " fill-opacity="1" fill-rule="nonzero"/><path fill="#f1a03c" d="M 318.28125 619.886719 C 339.542969 606.617188 345.742188 604.816406 347.539062 604.816406 C 348.210938 604.816406 348.269531 605.066406 348.269531 605.066406 C 348.355469 608.902344 318.28125 619.886719 318.28125 619.886719 " fill-opacity="1" fill-rule="nonzero"/><path fill="#f1a03c" d="M 322.15625 600.101562 C 337.664062 575.613281 341.660156 573.679688 342.539062 573.679688 C 342.703125 573.679688 342.757812 573.746094 342.757812 573.746094 C 344.5 577.164062 322.15625 600.101562 322.15625 600.101562 " fill-opacity="1" fill-rule="nonzero"/><path fill="#f1a03c" d="M 301.667969 621.839844 C 312.4375 601.785156 315.410156 600.386719 316.03125 600.386719 C 316.128906 600.386719 316.167969 600.425781 316.167969 600.425781 C 317.859375 602.863281 301.667969 621.839844 301.667969 621.839844 " fill-opacity="1" fill-rule="nonzero"/><path fill="#f1a03c" d="M 262.09375 680.585938 C 261.992188 680.585938 261.953125 680.546875 261.953125 680.546875 C 260.261719 678.109375 276.453125 659.136719 276.453125 659.136719 C 265.6875 679.1875 262.714844 680.585938 262.09375 680.585938 " fill-opacity="1" fill-rule="nonzero"/><path fill="#f1a03c" d="M 298.195312 614.863281 C 304.703125 586.636719 308.089844 585.417969 308.628906 585.417969 C 308.679688 585.417969 308.703125 585.429688 308.703125 585.429688 C 311.917969 587.621094 298.195312 614.863281 298.195312 614.863281 " fill-opacity="1" fill-rule="nonzero"/><path fill="#f1a03c" d="M 269.496094 695.554688 C 269.445312 695.554688 269.417969 695.542969 269.417969 695.542969 C 266.203125 693.351562 279.929688 666.109375 279.929688 666.109375 C 273.417969 694.335938 270.03125 695.554688 269.496094 695.554688 " fill-opacity="1" fill-rule="nonzero"/><path fill="#f1a03c" d="M 265.457031 623.4375 C 235.703125 606.117188 238.351562 603.835938 238.351562 603.835938 C 238.492188 603.757812 238.667969 603.722656 238.871094 603.722656 C 243.640625 603.722656 265.457031 623.4375 265.457031 623.4375 " fill-opacity="1" fill-rule="nonzero"/><path fill="#f1a03c" d="M 339.246094 677.25 C 334.480469 677.25 312.667969 657.535156 312.667969 657.535156 C 342.417969 674.855469 339.769531 677.136719 339.769531 677.136719 C 339.632812 677.214844 339.457031 677.25 339.246094 677.25 " fill-opacity="1" fill-rule="nonzero"/><path fill="#f1a03c" d="M 281.339844 619.34375 C 269.789062 595.546875 272.484375 595.046875 272.484375 595.046875 C 275.449219 595.105469 281.339844 619.34375 281.339844 619.34375 " fill-opacity="1" fill-rule="nonzero"/><path fill="#f1a03c" d="M 238.433594 702.117188 C 238.304688 702.117188 238.261719 702.066406 238.261719 702.066406 C 236.789062 699.492188 254.554688 681.984375 254.554688 681.984375 C 242.34375 700.660156 239.140625 702.117188 238.433594 702.117188 " fill-opacity="1" fill-rule="nonzero"/><path fill="#f1a03c" d="M 279.25 590.1875 C 271.007812 565.058594 273.746094 564.921875 273.746094 564.921875 C 276.675781 565.378906 279.25 590.1875 279.25 590.1875 " fill-opacity="1" fill-rule="nonzero"/><path fill="#f1a03c" d="M 305.640625 685.925781 C 302.671875 685.867188 296.78125 661.628906 296.78125 661.628906 C 308.332031 685.425781 305.640625 685.925781 305.640625 685.925781 " fill-opacity="1" fill-rule="nonzero"/><path fill="#f1a03c" d="M 336.183594 693.242188 C 333 693.238281 320.359375 672.902344 320.359375 672.902344 C 338.765625 691.894531 336.363281 693.214844 336.363281 693.214844 C 336.308594 693.234375 336.246094 693.242188 336.183594 693.242188 " fill-opacity="1" fill-rule="nonzero"/><path fill="#f1a03c" d="M 319.691406 708.949219 C 316.722656 708.949219 310.3125 684.847656 310.3125 684.847656 C 322.375 708.390625 319.691406 708.949219 319.691406 708.949219 " fill-opacity="1" fill-rule="nonzero"/><path fill="#f1a03c" d="M 273.648438 618.074219 C 252.789062 594.191406 255.957031 592.304688 255.957031 592.304688 C 256.042969 592.273438 256.136719 592.261719 256.234375 592.261719 C 260.273438 592.261719 273.648438 618.074219 273.648438 618.074219 " fill-opacity="1" fill-rule="nonzero"/><path fill="#f1a03c" d="M 321.886719 688.714844 C 317.847656 688.710938 304.476562 662.898438 304.476562 662.898438 C 325.332031 686.78125 322.167969 688.667969 322.167969 688.667969 C 322.078125 688.699219 321.988281 688.714844 321.886719 688.714844 " fill-opacity="1" fill-rule="nonzero"/><path fill="#f1a03c" d="M 230.617188 659.320312 C 229.292969 659.320312 229.269531 658.910156 229.269531 658.910156 C 229.792969 655.109375 261.238281 649.070312 261.238281 649.070312 C 240.398438 657.820312 233.144531 659.320312 230.617188 659.320312 " fill-opacity="1" fill-rule="nonzero"/><path fill="#f1a03c" d="M 316.886719 631.902344 C 337.726562 623.15625 344.980469 621.652344 347.507812 621.652344 C 348.828125 621.652344 348.855469 622.0625 348.855469 622.0625 C 348.332031 625.863281 316.886719 631.902344 316.886719 631.902344 " fill-opacity="1" fill-rule="nonzero"/><path fill="#f1a03c" d="M 230.695312 683.65625 C 230.28125 683.65625 230.214844 683.488281 230.214844 683.488281 C 229.59375 679.703125 257.863281 664.660156 257.863281 664.660156 C 237.484375 681.714844 232.09375 683.660156 230.695312 683.65625 " fill-opacity="1" fill-rule="nonzero"/><path fill="#f1a03c" d="M 265.097656 633.109375 C 239.140625 628.007812 240.363281 625.550781 240.363281 625.550781 C 240.558594 625.304688 240.984375 625.195312 241.597656 625.195312 C 246.777344 625.195312 265.097656 633.109375 265.097656 633.109375 " fill-opacity="1" fill-rule="nonzero"/><path fill="#f1a03c" d="M 218.007812 676.414062 C 217.511719 676.414062 217.453125 676.230469 217.453125 676.230469 C 217.132812 673.28125 240.421875 664.34375 240.421875 664.34375 C 224.152344 675.003906 219.390625 676.414062 218.007812 676.414062 " fill-opacity="1" fill-rule="nonzero"/><path fill="#f1a03c" d="M 241.972656 619.316406 C 216.019531 614.214844 217.238281 611.757812 217.238281 611.757812 C 217.433594 611.511719 217.859375 611.402344 218.472656 611.402344 C 223.652344 611.402344 241.972656 619.316406 241.972656 619.316406 " fill-opacity="1" fill-rule="nonzero"/><path fill="#f1a03c" d="M 334.09375 654.964844 C 328.910156 654.964844 310.59375 647.050781 310.59375 647.050781 C 336.546875 652.15625 335.324219 654.609375 335.324219 654.609375 C 335.132812 654.855469 334.703125 654.964844 334.09375 654.964844 " fill-opacity="1" fill-rule="nonzero"/><path fill="#f1a03c" d="M 355.191406 671.195312 C 350.011719 671.195312 331.6875 663.28125 331.6875 663.28125 C 357.640625 668.382812 356.421875 670.839844 356.421875 670.839844 C 356.226562 671.085938 355.800781 671.195312 355.191406 671.195312 " fill-opacity="1" fill-rule="nonzero"/><path fill="#f1a03c" d="M 229.351562 642.476562 C 215.417969 642.476562 215.652344 640.34375 215.652344 640.34375 C 215.957031 639.351562 218.324219 638.988281 221.628906 638.988281 C 230.710938 638.988281 246.875 641.730469 246.875 641.730469 C 239.378906 642.273438 233.679688 642.476562 229.351562 642.476562 " fill-opacity="1" fill-rule="nonzero"/><path fill="#f1a03c" d="M 283.730469 632.785156 C 270.765625 621.523438 273.699219 619.765625 273.699219 619.765625 C 273.859375 619.691406 274.023438 619.660156 274.199219 619.660156 C 277.585938 619.660156 283.730469 632.785156 283.730469 632.785156 " fill-opacity="1" fill-rule="nonzero"/><path fill="#f1a03c" d="M 269.191406 641.914062 C 252.511719 641.914062 253.542969 638.71875 253.542969 638.71875 C 253.839844 638.0625 254.667969 637.800781 255.808594 637.800781 C 260.316406 637.800781 269.664062 641.914062 269.664062 641.914062 C 269.503906 641.914062 269.351562 641.914062 269.191406 641.914062 " fill-opacity="1" fill-rule="nonzero"/><g clip-path="url(#ae4c87e74e)"><path fill="#f1a03c" d="M 208.863281 654.941406 C 204.628906 654.941406 204.707031 654.117188 204.707031 654.117188 C 205.210938 652.503906 213.484375 652.160156 220.53125 652.160156 C 225.875 652.160156 230.507812 652.359375 230.507812 652.359375 C 218.746094 654.382812 212.347656 654.941406 208.863281 654.941406 " fill-opacity="1" fill-rule="nonzero"/></g><path fill="#f1a03c" d="M 284.726562 614.820312 C 280.453125 588.007812 283.46875 587.511719 283.695312 587.511719 C 283.707031 587.511719 283.710938 587.515625 283.710938 587.515625 C 287.234375 588.707031 284.726562 614.820312 284.726562 614.820312 " fill-opacity="1" fill-rule="nonzero"/><g clip-path="url(#f0b93b4a41)"><path fill="#f1a03c" d="M 280.234375 711.648438 C 280.210938 711.648438 280.195312 711.644531 280.195312 711.644531 C 276.898438 709.683594 283.539062 678.363281 283.539062 678.363281 C 283.5 710.644531 280.597656 711.648438 280.234375 711.648438 " fill-opacity="1" fill-rule="nonzero"/></g><g clip-path="url(#ac82c7fbc8)"><path fill="#f1a03c" d="M 297.242188 593.222656 C 302.746094 564.539062 306.097656 563.410156 306.589844 563.410156 C 306.632812 563.410156 306.652344 563.417969 306.652344 563.417969 C 309.949219 565.488281 297.242188 593.222656 297.242188 593.222656 " fill-opacity="1" fill-rule="nonzero"/></g><path fill="#f1a03c" d="M 251.253906 707.546875 C 251.117188 707.546875 251.0625 707.503906 251.0625 707.503906 C 248.515625 704.5625 268.773438 681.753906 268.773438 681.753906 C 256.03125 705.863281 252.105469 707.546875 251.253906 707.546875 " fill-opacity="1" fill-rule="nonzero"/><path fill="#f1a03c" d="M 240.429688 612.667969 C 210.382812 595.859375 212.992188 593.535156 212.992188 593.535156 C 213.136719 593.453125 213.324219 593.414062 213.546875 593.414062 C 218.378906 593.414062 240.429688 612.667969 240.429688 612.667969 " fill-opacity="1" fill-rule="nonzero"/><path fill="#f1a03c" d="M 229.378906 632.898438 C 207.703125 632.898438 208.464844 630.425781 208.464844 630.425781 C 208.890625 629.652344 210.890625 629.355469 213.722656 629.355469 C 223.167969 629.355469 241.839844 632.679688 241.839844 632.679688 C 237.023438 632.832031 232.90625 632.898438 229.378906 632.898438 " fill-opacity="1" fill-rule="nonzero"/><path fill="#f1a03c" d="M 320.042969 610 C 334.796875 594.808594 338.628906 593.292969 339.570312 593.292969 C 339.804688 593.292969 339.863281 593.386719 339.863281 593.386719 C 340.816406 596.195312 320.042969 610 320.042969 610 " fill-opacity="1" fill-rule="nonzero"/><path fill="#f1a03c" d="M 267.023438 593.777344 C 255.066406 570.179688 257.75 569.632812 257.75 569.632812 C 260.71875 569.640625 267.023438 593.777344 267.023438 593.777344 " fill-opacity="1" fill-rule="nonzero"/><path fill="#f1a03c" d="M 255.019531 605.542969 C 233.753906 582.023438 236.890625 580.082031 236.890625 580.082031 C 236.980469 580.046875 237.078125 580.03125 237.183594 580.03125 C 241.246094 580.03125 255.019531 605.542969 255.019531 605.542969 " fill-opacity="1" fill-rule="nonzero"/><path fill="#f1a03c" d="M 341.484375 644.417969 C 332.40625 644.417969 316.238281 641.675781 316.238281 641.675781 C 323.730469 641.136719 329.425781 640.929688 333.753906 640.929688 C 347.695312 640.929688 347.460938 643.066406 347.460938 643.066406 C 347.15625 644.054688 344.789062 644.417969 341.484375 644.417969 " fill-opacity="1" fill-rule="nonzero"/><path fill="#f1a03c" d="M 361.363281 653.34375 C 352.285156 653.34375 336.117188 650.597656 336.117188 650.597656 C 343.609375 650.058594 349.300781 649.855469 353.628906 649.855469 C 367.570312 649.855469 367.339844 651.988281 367.339844 651.988281 C 367.035156 652.980469 364.667969 653.34375 361.363281 653.34375 " fill-opacity="1" fill-rule="nonzero"/><path fill="#f1a03c" d="M 347.75 632.609375 C 342.945312 632.609375 338.488281 632.265625 338.488281 632.265625 C 347.601562 629.691406 352.761719 628.976562 355.683594 628.976562 C 359.347656 628.976562 359.484375 630.105469 359.484375 630.105469 C 359.460938 632.140625 353.367188 632.609375 347.75 632.609375 " fill-opacity="1" fill-rule="nonzero"/><path fill="#f1a03c" d="M 1237.210938 281.082031 C 1239.164062 248.847656 1242.113281 247.6875 1242.53125 247.6875 C 1242.5625 247.6875 1242.578125 247.695312 1242.578125 247.695312 C 1245.789062 249.867188 1237.210938 281.082031 1237.210938 281.082031 " fill-opacity="1" fill-rule="nonzero"/><path fill="#f1a03c" d="M 1238.402344 303.105469 C 1238.550781 287.707031 1241.144531 286.835938 1241.730469 286.835938 C 1241.804688 286.835938 1241.847656 286.851562 1241.847656 286.851562 C 1245.117188 288.367188 1238.402344 303.105469 1238.402344 303.105469 " fill-opacity="1" fill-rule="nonzero"/><path fill="#f1a03c" d="M 1227.421875 310.679688 C 1210.355469 307.507812 1212.011719 304.472656 1212.011719 304.472656 C 1212.296875 304.058594 1212.800781 303.882812 1213.460938 303.882812 C 1217.527344 303.882812 1227.421875 310.679688 1227.421875 310.679688 " fill-opacity="1" fill-rule="nonzero"/><path fill="#f1a03c" d="M 1210.113281 336.765625 C 1209.605469 336.765625 1209.4375 336.515625 1209.4375 336.515625 C 1207.746094 333.328125 1222.015625 325.664062 1222.015625 325.664062 C 1214.507812 335.339844 1211.332031 336.765625 1210.113281 336.765625 " fill-opacity="1" fill-rule="nonzero"/><path fill="#f1a03c" d="M 1242.351562 347.300781 C 1238.75 347.050781 1239.789062 330.886719 1239.789062 330.886719 C 1245.804688 347.171875 1242.351562 347.300781 1242.351562 347.300781 " fill-opacity="1" fill-rule="nonzero"/><path fill="#f1a03c" d="M 1225.695312 335.617188 C 1225.382812 335.617188 1225.242188 335.480469 1225.242188 335.480469 C 1222.945312 332.699219 1235.378906 322.316406 1235.378906 322.316406 C 1229.53125 334.210938 1226.707031 335.617188 1225.695312 335.617188 " fill-opacity="1" fill-rule="nonzero"/><path fill="#f1a03c" d="M 1248.867188 310.070312 C 1256.699219 301.035156 1259.980469 299.628906 1261.265625 299.628906 C 1261.84375 299.628906 1262.019531 299.917969 1262.019531 299.917969 C 1263.53125 303.191406 1248.867188 310.070312 1248.867188 310.070312 " fill-opacity="1" fill-rule="nonzero"/><path fill="#f1a03c" d="M 1294.933594 291.339844 C 1303.46875 285.625 1307.28125 284.457031 1308.972656 284.457031 C 1310.140625 284.457031 1310.296875 285.011719 1310.296875 285.011719 C 1310.890625 288.566406 1294.933594 291.339844 1294.933594 291.339844 " fill-opacity="1" fill-rule="nonzero"/><path fill="#f1a03c" d="M 1262.285156 270.4375 C 1271.164062 248.679688 1274.429688 247.050781 1275.207031 247.050781 C 1275.34375 247.050781 1275.402344 247.097656 1275.402344 247.097656 C 1277.835938 249.949219 1262.285156 270.4375 1262.285156 270.4375 " fill-opacity="1" fill-rule="nonzero"/><path fill="#f1a03c" d="M 1258.78125 331.277344 C 1255.234375 331.277344 1247.007812 320.144531 1247.007812 320.144531 C 1262.105469 328.710938 1259.546875 331.042969 1259.546875 331.042969 C 1259.328125 331.203125 1259.070312 331.277344 1258.78125 331.277344 " fill-opacity="1" fill-rule="nonzero"/><path fill="#f1a03c" d="M 1247.945312 387.566406 C 1244.167969 386.695312 1240.9375 354.484375 1240.9375 354.484375 C 1251.417969 387.476562 1247.984375 387.566406 1247.945312 387.566406 " fill-opacity="1" fill-rule="nonzero"/><path fill="#f1a03c" d="M 1266.582031 296.886719 C 1288.078125 283.46875 1294.34375 281.648438 1296.160156 281.648438 C 1296.839844 281.648438 1296.898438 281.902344 1296.898438 281.902344 C 1296.988281 285.777344 1266.582031 296.886719 1266.582031 296.886719 " fill-opacity="1" fill-rule="nonzero"/><path fill="#f1a03c" d="M 1270.5 276.882812 C 1286.179688 252.125 1290.21875 250.167969 1291.105469 250.167969 C 1291.273438 250.167969 1291.328125 250.238281 1291.328125 250.238281 C 1293.089844 253.695312 1270.5 276.882812 1270.5 276.882812 " fill-opacity="1" fill-rule="nonzero"/><path fill="#f1a03c" d="M 1249.789062 298.855469 C 1260.675781 278.585938 1263.679688 277.171875 1264.308594 277.171875 C 1264.410156 277.171875 1264.449219 277.207031 1264.449219 277.207031 C 1266.15625 279.675781 1249.789062 298.855469 1249.789062 298.855469 " fill-opacity="1" fill-rule="nonzero"/><path fill="#f1a03c" d="M 1209.777344 358.25 C 1209.675781 358.25 1209.636719 358.210938 1209.636719 358.210938 C 1207.925781 355.746094 1224.292969 336.5625 1224.292969 336.5625 C 1213.410156 356.835938 1210.402344 358.25 1209.777344 358.25 " fill-opacity="1" fill-rule="nonzero"/><path fill="#f1a03c" d="M 1246.273438 291.804688 C 1252.855469 263.269531 1256.28125 262.039062 1256.824219 262.039062 C 1256.875 262.039062 1256.898438 262.050781 1256.898438 262.050781 C 1260.148438 264.265625 1246.273438 291.804688 1246.273438 291.804688 " fill-opacity="1" fill-rule="nonzero"/><path fill="#f1a03c" d="M 1217.261719 373.382812 C 1217.210938 373.382812 1217.183594 373.375 1217.183594 373.375 C 1213.933594 371.15625 1227.8125 343.617188 1227.8125 343.617188 C 1221.226562 372.152344 1217.804688 373.382812 1217.261719 373.382812 " fill-opacity="1" fill-rule="nonzero"/><path fill="#f1a03c" d="M 1213.179688 300.472656 C 1183.097656 282.964844 1185.773438 280.660156 1185.773438 280.660156 C 1185.917969 280.578125 1186.09375 280.542969 1186.300781 280.542969 C 1191.125 280.542969 1213.179688 300.472656 1213.179688 300.472656 " fill-opacity="1" fill-rule="nonzero"/><path fill="#f1a03c" d="M 1287.78125 354.878906 C 1282.957031 354.875 1260.90625 334.945312 1260.90625 334.945312 C 1290.984375 352.457031 1288.308594 354.761719 1288.308594 354.761719 C 1288.167969 354.839844 1287.992188 354.878906 1287.78125 354.878906 " fill-opacity="1" fill-rule="nonzero"/><path fill="#f1a03c" d="M 1229.234375 296.332031 C 1217.558594 272.277344 1220.28125 271.769531 1220.28125 271.769531 C 1223.28125 271.832031 1229.234375 296.332031 1229.234375 296.332031 " fill-opacity="1" fill-rule="nonzero"/><path fill="#f1a03c" d="M 1185.859375 380.019531 C 1185.730469 380.019531 1185.683594 379.96875 1185.683594 379.96875 C 1184.195312 377.363281 1202.15625 359.664062 1202.15625 359.664062 C 1189.8125 378.542969 1186.570312 380.019531 1185.859375 380.019531 " fill-opacity="1" fill-rule="nonzero"/><path fill="#f1a03c" d="M 1227.121094 266.859375 C 1218.789062 241.453125 1221.558594 241.3125 1221.558594 241.3125 C 1224.523438 241.777344 1227.121094 266.859375 1227.121094 266.859375 " fill-opacity="1" fill-rule="nonzero"/><path fill="#f1a03c" d="M 1253.804688 363.652344 C 1250.800781 363.589844 1244.847656 339.085938 1244.847656 339.085938 C 1256.527344 363.144531 1253.804688 363.652344 1253.804688 363.652344 " fill-opacity="1" fill-rule="nonzero"/><path fill="#f1a03c" d="M 1284.679688 371.042969 C 1281.464844 371.042969 1268.683594 350.480469 1268.683594 350.480469 C 1287.292969 369.683594 1284.863281 371.019531 1284.863281 371.019531 C 1284.808594 371.035156 1284.746094 371.042969 1284.679688 371.042969 " fill-opacity="1" fill-rule="nonzero"/><path fill="#f1a03c" d="M 1268.007812 386.925781 C 1265.007812 386.925781 1258.527344 362.5625 1258.527344 362.5625 C 1270.722656 386.359375 1268.007812 386.925781 1268.007812 386.925781 " fill-opacity="1" fill-rule="nonzero"/><path fill="#f1a03c" d="M 1221.460938 295.050781 C 1200.371094 270.90625 1203.574219 269 1203.574219 269 C 1203.660156 268.96875 1203.753906 268.953125 1203.855469 268.953125 C 1207.941406 268.953125 1221.460938 295.050781 1221.460938 295.050781 " fill-opacity="1" fill-rule="nonzero"/><path fill="#f1a03c" d="M 1270.230469 366.46875 C 1266.144531 366.464844 1252.625 340.371094 1252.625 340.371094 C 1273.710938 364.511719 1270.511719 366.417969 1270.511719 366.417969 C 1270.421875 366.453125 1270.328125 366.46875 1270.230469 366.46875 " fill-opacity="1" fill-rule="nonzero"/><path fill="#f1a03c" d="M 1177.957031 336.75 C 1176.617188 336.75 1176.59375 336.335938 1176.59375 336.335938 C 1177.121094 332.492188 1208.914062 326.386719 1208.914062 326.386719 C 1187.84375 335.234375 1180.507812 336.75 1177.957031 336.75 " fill-opacity="1" fill-rule="nonzero"/><path fill="#f1a03c" d="M 1265.171875 309.03125 C 1286.242188 300.1875 1293.578125 298.667969 1296.128906 298.667969 C 1297.46875 298.667969 1297.492188 299.085938 1297.492188 299.085938 C 1296.964844 302.925781 1265.171875 309.03125 1265.171875 309.03125 " fill-opacity="1" fill-rule="nonzero"/><path fill="#f1a03c" d="M 1178.035156 361.355469 C 1177.613281 361.355469 1177.550781 361.183594 1177.550781 361.183594 C 1176.921875 357.359375 1205.5 342.152344 1205.5 342.152344 C 1184.898438 359.390625 1179.449219 361.359375 1178.035156 361.355469 " fill-opacity="1" fill-rule="nonzero"/><path fill="#f1a03c" d="M 1212.8125 310.253906 C 1186.574219 305.09375 1187.808594 302.613281 1187.808594 302.613281 C 1188.007812 302.363281 1188.4375 302.253906 1189.054688 302.253906 C 1194.292969 302.253906 1212.8125 310.253906 1212.8125 310.253906 " fill-opacity="1" fill-rule="nonzero"/><path fill="#f1a03c" d="M 1165.210938 354.035156 C 1164.707031 354.035156 1164.648438 353.847656 1164.648438 353.847656 C 1164.324219 350.863281 1187.867188 341.832031 1187.867188 341.832031 C 1171.421875 352.609375 1166.605469 354.035156 1165.210938 354.035156 " fill-opacity="1" fill-rule="nonzero"/><path fill="#f1a03c" d="M 1189.4375 296.308594 C 1163.195312 291.148438 1164.429688 288.667969 1164.429688 288.667969 C 1164.628906 288.417969 1165.058594 288.304688 1165.679688 288.304688 C 1170.914062 288.304688 1189.4375 296.308594 1189.4375 296.308594 " fill-opacity="1" fill-rule="nonzero"/><path fill="#f1a03c" d="M 1282.566406 332.347656 C 1277.328125 332.347656 1258.808594 324.347656 1258.808594 324.347656 C 1285.046875 329.507812 1283.8125 331.988281 1283.8125 331.988281 C 1283.617188 332.238281 1283.183594 332.347656 1282.566406 332.347656 " fill-opacity="1" fill-rule="nonzero"/><path fill="#f1a03c" d="M 1303.898438 348.757812 C 1298.664062 348.757812 1280.136719 340.753906 1280.136719 340.753906 C 1306.375 345.914062 1305.140625 348.398438 1305.140625 348.398438 C 1304.945312 348.644531 1304.515625 348.757812 1303.898438 348.757812 " fill-opacity="1" fill-rule="nonzero"/><path fill="#f1a03c" d="M 1176.675781 319.722656 C 1162.589844 319.722656 1162.824219 317.566406 1162.824219 317.566406 C 1163.132812 316.566406 1165.527344 316.195312 1168.871094 316.195312 C 1178.050781 316.195312 1194.390625 318.96875 1194.390625 318.96875 C 1186.8125 319.515625 1181.050781 319.722656 1176.675781 319.722656 " fill-opacity="1" fill-rule="nonzero"/><path fill="#f1a03c" d="M 1231.652344 309.921875 C 1218.542969 298.539062 1221.511719 296.761719 1221.511719 296.761719 C 1221.671875 296.6875 1221.839844 296.652344 1222.015625 296.652344 C 1225.441406 296.652344 1231.652344 309.921875 1231.652344 309.921875 " fill-opacity="1" fill-rule="nonzero"/><path fill="#f1a03c" d="M 1216.953125 319.15625 C 1200.09375 319.15625 1201.132812 315.925781 1201.132812 315.925781 C 1201.433594 315.261719 1202.269531 314.996094 1203.421875 314.996094 C 1207.980469 314.996094 1217.433594 319.15625 1217.433594 319.15625 C 1217.269531 319.15625 1217.113281 319.15625 1216.953125 319.15625 " fill-opacity="1" fill-rule="nonzero"/><g clip-path="url(#d60b26fc19)"><path fill="#f1a03c" d="M 1155.964844 332.324219 C 1151.679688 332.324219 1151.761719 331.492188 1151.761719 331.492188 C 1152.269531 329.859375 1160.636719 329.511719 1167.757812 329.511719 C 1173.160156 329.511719 1177.84375 329.710938 1177.84375 329.710938 C 1165.953125 331.757812 1159.484375 332.324219 1155.964844 332.324219 " fill-opacity="1" fill-rule="nonzero"/></g><path fill="#f1a03c" d="M 1232.660156 291.761719 C 1228.339844 264.65625 1231.390625 264.15625 1231.617188 264.15625 C 1231.628906 264.15625 1231.632812 264.15625 1231.632812 264.15625 C 1235.195312 265.359375 1232.660156 291.761719 1232.660156 291.761719 " fill-opacity="1" fill-rule="nonzero"/><g clip-path="url(#9e863a32a1)"><path fill="#f1a03c" d="M 1228.117188 389.65625 C 1228.09375 389.65625 1228.078125 389.648438 1228.078125 389.648438 C 1224.746094 387.667969 1231.457031 356 1231.457031 356 C 1231.421875 388.636719 1228.484375 389.65625 1228.117188 389.65625 " fill-opacity="1" fill-rule="nonzero"/></g><g clip-path="url(#c784a04156)"><path fill="#f1a03c" d="M 1245.3125 269.929688 C 1250.878906 240.929688 1254.265625 239.785156 1254.765625 239.785156 C 1254.804688 239.785156 1254.828125 239.792969 1254.828125 239.792969 C 1258.15625 241.890625 1245.3125 269.929688 1245.3125 269.929688 " fill-opacity="1" fill-rule="nonzero"/></g><path fill="#f1a03c" d="M 1198.820312 385.507812 C 1198.679688 385.507812 1198.625 385.464844 1198.625 385.464844 C 1196.050781 382.488281 1216.53125 359.429688 1216.53125 359.429688 C 1203.648438 383.804688 1199.679688 385.507812 1198.820312 385.507812 " fill-opacity="1" fill-rule="nonzero"/><path fill="#f1a03c" d="M 1187.875 289.585938 C 1157.5 272.59375 1160.136719 270.246094 1160.136719 270.246094 C 1160.285156 270.160156 1160.472656 270.117188 1160.695312 270.117188 C 1165.582031 270.117188 1187.875 289.585938 1187.875 289.585938 " fill-opacity="1" fill-rule="nonzero"/><path fill="#f1a03c" d="M 1176.703125 310.039062 C 1154.789062 310.039062 1155.558594 307.539062 1155.558594 307.539062 C 1155.992188 306.757812 1158.011719 306.457031 1160.875 306.457031 C 1170.425781 306.457031 1189.300781 309.816406 1189.300781 309.816406 C 1184.433594 309.96875 1180.269531 310.039062 1176.703125 310.039062 " fill-opacity="1" fill-rule="nonzero"/><path fill="#f1a03c" d="M 1268.363281 286.890625 C 1283.28125 271.527344 1287.15625 270 1288.105469 270 C 1288.34375 270 1288.402344 270.09375 1288.402344 270.09375 C 1289.367188 272.933594 1268.363281 286.890625 1268.363281 286.890625 " fill-opacity="1" fill-rule="nonzero"/><path fill="#f1a03c" d="M 1214.761719 270.488281 C 1202.675781 246.632812 1205.386719 246.078125 1205.386719 246.078125 C 1208.390625 246.085938 1214.761719 270.488281 1214.761719 270.488281 " fill-opacity="1" fill-rule="nonzero"/><path fill="#f1a03c" d="M 1202.625 282.382812 C 1181.128906 258.605469 1184.296875 256.640625 1184.296875 256.640625 C 1184.390625 256.605469 1184.488281 256.589844 1184.59375 256.589844 C 1188.699219 256.589844 1202.625 282.382812 1202.625 282.382812 " fill-opacity="1" fill-rule="nonzero"/><path fill="#f1a03c" d="M 1290.042969 321.6875 C 1280.863281 321.6875 1264.519531 318.914062 1264.519531 318.914062 C 1272.09375 318.367188 1277.851562 318.160156 1282.226562 318.160156 C 1296.320312 318.160156 1296.082031 320.316406 1296.082031 320.316406 C 1295.773438 321.320312 1293.382812 321.6875 1290.042969 321.6875 " fill-opacity="1" fill-rule="nonzero"/><g clip-path="url(#c93e5938b9)"><path fill="#f1a03c" d="M 1310.140625 330.707031 C 1300.960938 330.707031 1284.613281 327.933594 1284.613281 327.933594 C 1292.191406 327.390625 1297.945312 327.183594 1302.320312 327.183594 C 1316.414062 327.183594 1316.179688 329.339844 1316.179688 329.339844 C 1315.871094 330.34375 1313.480469 330.707031 1310.140625 330.707031 " fill-opacity="1" fill-rule="nonzero"/></g><path fill="#f1a03c" d="M 1296.378906 309.746094 C 1291.519531 309.746094 1287.011719 309.398438 1287.011719 309.398438 C 1296.226562 306.796875 1301.441406 306.074219 1304.394531 306.074219 C 1308.097656 306.074219 1308.238281 307.214844 1308.238281 307.214844 C 1308.214844 309.269531 1302.054688 309.746094 1296.378906 309.746094 " fill-opacity="1" fill-rule="nonzero"/><path fill="#f1a03c" d="M 1347.203125 644.71875 L 1343.414062 641.304688 C 1343.414062 641.304688 1335.664062 648.882812 1338.15625 661.957031 C 1338.15625 661.992188 1339.691406 651.476562 1347.203125 644.71875 Z M 1347.203125 644.71875 " fill-opacity="1" fill-rule="nonzero"/><path fill="#f1a03c" d="M 1294.632812 669.433594 L 1295.792969 674.691406 C 1305.929688 671.242188 1316.410156 675.339844 1316.410156 675.339844 C 1305.691406 666.222656 1294.632812 669.433594 1294.632812 669.433594 Z M 1294.632812 669.433594 " fill-opacity="1" fill-rule="nonzero"/><path fill="#f1a03c" d="M 1313.679688 651.136719 L 1327.199219 667.929688 L 1319.621094 647.792969 Z M 1313.679688 651.136719 " fill-opacity="1" fill-rule="nonzero"/><path fill="#f1a03c" d="M 1299.445312 626.796875 L 1300.433594 630.074219 C 1304.394531 628.878906 1306.578125 631.679688 1306.613281 631.714844 L 1309.3125 629.628906 C 1309.175781 629.425781 1305.625 624.953125 1299.445312 626.796875 Z M 1299.445312 626.796875 " fill-opacity="1" fill-rule="nonzero"/><path fill="#f1a03c" d="M 1288.351562 661.273438 C 1288.042969 661.273438 1280.808594 661.171875 1278.554688 654.585938 L 1275.3125 655.675781 C 1277.769531 662.8125 1284.902344 664.6875 1288.351562 664.6875 L 1288.351562 661.273438 L 1288.351562 662.980469 Z M 1288.351562 661.273438 " fill-opacity="1" fill-rule="nonzero"/><path fill="#f1a03c" d="M 1303.03125 583.445312 L 1302.347656 586.789062 C 1306.613281 587.644531 1307.46875 592.421875 1307.46875 592.492188 L 1310.847656 591.945312 C 1310.777344 591.636719 1309.582031 584.777344 1303.03125 583.445312 Z M 1303.03125 583.445312 " fill-opacity="1" fill-rule="nonzero"/><path fill="#f1a03c" d="M 1354.917969 588.632812 L 1351.503906 588.566406 C 1351.398438 594.230469 1346.996094 595.289062 1346.484375 595.394531 L 1347.132812 598.738281 C 1349.761719 598.261719 1354.78125 595.496094 1354.917969 588.632812 Z M 1354.917969 588.632812 " fill-opacity="1" fill-rule="nonzero"/><g clip-path="url(#78c5d646c3)"><path fill="#f1a03c" d="M 1308.390625 507.355469 L 1305.386719 505.75 C 1302.722656 510.734375 1298.285156 509.675781 1297.808594 509.539062 L 1296.851562 512.816406 C 1299.410156 513.570312 1305.144531 513.398438 1308.390625 507.355469 Z M 1308.390625 507.355469 " fill-opacity="1" fill-rule="nonzero"/></g><path fill="#f1a03c" d="M 1347.066406 629.734375 L 1346.554688 626.355469 C 1340.203125 627.308594 1337.847656 632.292969 1337.472656 634.785156 L 1339.144531 635.023438 L 1340.816406 635.296875 C 1340.886719 635.09375 1341.707031 630.519531 1347.066406 629.734375 Z M 1347.066406 629.734375 " fill-opacity="1" fill-rule="nonzero"/><path fill="#f1a03c" d="M 1260.734375 624.542969 L 1263.601562 626.421875 C 1266.8125 621.507812 1271.589844 622.394531 1271.625 622.394531 L 1272.273438 619.046875 C 1272 618.945312 1265.171875 617.71875 1260.734375 624.542969 Z M 1260.734375 624.542969 " fill-opacity="1" fill-rule="nonzero"/><path fill="#f1a03c" d="M 1288.078125 539.75 L 1290.332031 537.191406 C 1290.296875 537.15625 1285.519531 532.925781 1284.527344 527.632812 L 1281.183594 528.28125 C 1282.378906 534.734375 1287.839844 539.546875 1288.078125 539.75 Z M 1288.078125 539.75 " fill-opacity="1" fill-rule="nonzero"/><path fill="#f1a03c" d="M 1275.824219 558.390625 L 1275.414062 555.011719 C 1275.039062 555.042969 1266.0625 556.238281 1262.40625 566.890625 L 1265.652344 568.015625 C 1268.550781 559.414062 1275.515625 558.421875 1275.824219 558.390625 Z M 1275.824219 558.390625 " fill-opacity="1" fill-rule="nonzero"/><path fill="#f1a03c" d="M 1321.601562 606.28125 C 1324.296875 606.761719 1326.617188 605.769531 1327.503906 604.539062 C 1327.984375 603.890625 1328.050781 603.140625 1327.710938 602.492188 C 1326.992188 601.195312 1324.707031 600.648438 1321.085938 600.855469 C 1320.097656 600.921875 1319.246094 601.09375 1318.597656 601.332031 C 1318.5625 601.128906 1318.527344 600.886719 1318.527344 600.683594 C 1318.390625 598.328125 1319.621094 595.359375 1322.691406 594.402344 L 1322.28125 593.105469 C 1318.527344 594.265625 1316.992188 597.882812 1317.160156 600.75 C 1317.195312 601.160156 1317.230469 601.570312 1317.332031 601.945312 C 1315.863281 602.972656 1315.558594 604.472656 1315.589844 605.496094 C 1315.589844 607.273438 1316.480469 609.320312 1317.742188 611.027344 C 1317.433594 611.367188 1317.128906 611.742188 1316.855469 612.1875 C 1315.660156 614.203125 1315.558594 616.660156 1316.617188 618.398438 C 1316.785156 618.671875 1316.992188 618.980469 1317.265625 619.253906 C 1317.058594 620.039062 1316.992188 621.0625 1317.230469 622.324219 C 1317.503906 623.828125 1317.980469 624.953125 1318.5625 625.839844 C 1317.265625 629.765625 1321.328125 637.074219 1321.804688 637.960938 L 1323 637.277344 C 1321.871094 635.261719 1319.414062 630.109375 1319.6875 627.105469 C 1320.746094 627.957031 1321.976562 628.230469 1323.101562 628.09375 C 1324.945312 627.890625 1326.414062 626.730469 1326.378906 625.464844 C 1326.34375 624.75 1325.867188 623.554688 1322.761719 623.417969 C 1321.257812 623.351562 1320.132812 623.726562 1319.347656 624.511719 C 1319.039062 623.894531 1318.765625 623.109375 1318.597656 622.085938 C 1318.460938 621.371094 1318.425781 620.753906 1318.492188 620.210938 C 1319.585938 620.824219 1321.121094 621.234375 1323.339844 621.132812 C 1325.628906 621.027344 1326.824219 620.550781 1327.09375 619.628906 C 1327.199219 619.253906 1327.265625 618.535156 1326.277344 617.785156 C 1324.707031 616.558594 1321.191406 615.667969 1318.9375 617 C 1318.597656 617.207031 1318.21875 617.511719 1317.914062 617.921875 C 1317.878906 617.855469 1317.84375 617.785156 1317.777344 617.71875 C 1316.855469 616.214844 1317.230469 614.203125 1318.015625 612.902344 C 1318.1875 612.597656 1318.390625 612.359375 1318.597656 612.121094 C 1319.996094 613.65625 1321.667969 614.714844 1323.136719 614.78125 C 1325.523438 614.882812 1326.445312 613.894531 1326.480469 612.902344 C 1326.550781 611.402344 1324.535156 609.695312 1321.15625 609.523438 C 1320.335938 609.492188 1319.515625 609.695312 1318.800781 610.140625 C 1317.742188 608.707031 1316.957031 606.964844 1316.921875 605.460938 C 1316.921875 604.539062 1317.195312 603.824219 1317.777344 603.277344 C 1318.527344 604.917969 1319.894531 605.976562 1321.601562 606.28125 Z M 1321.15625 602.253906 C 1322.65625 602.152344 1323.75 602.21875 1324.535156 602.355469 C 1326.105469 602.59375 1326.445312 603.105469 1326.515625 603.210938 C 1326.550781 603.277344 1326.652344 603.449219 1326.414062 603.789062 C 1325.867188 604.539062 1324.125 605.394531 1321.871094 604.984375 C 1320.40625 604.710938 1319.515625 603.789062 1319.003906 602.699219 C 1319.585938 602.425781 1320.300781 602.289062 1321.15625 602.253906 Z M 1322.65625 624.816406 C 1323 624.816406 1323.304688 624.851562 1323.578125 624.921875 C 1324.605469 625.089844 1324.980469 625.398438 1324.980469 625.570312 C 1324.980469 625.910156 1324.160156 626.660156 1322.929688 626.796875 C 1322.316406 626.867188 1321.121094 626.796875 1320.132812 625.738281 C 1320.609375 625.054688 1321.429688 624.75 1322.65625 624.816406 Z M 1320.710938 617.785156 C 1323.035156 617.34375 1325.558594 618.671875 1325.765625 619.21875 C 1325.660156 619.320312 1325.148438 619.664062 1323.238281 619.765625 C 1321.394531 619.867188 1319.925781 619.5625 1318.902344 618.878906 C 1319.277344 618.296875 1319.894531 617.957031 1320.710938 617.785156 Z M 1321.085938 610.957031 C 1321.429688 610.957031 1321.734375 610.992188 1322.007812 611.0625 C 1324.058594 611.367188 1325.117188 612.390625 1325.082031 612.902344 C 1325.082031 613.210938 1324.398438 613.519531 1323.167969 613.449219 C 1322.144531 613.417969 1320.816406 612.527344 1319.652344 611.300781 C 1320.132812 611.027344 1320.609375 610.925781 1321.085938 610.957031 Z M 1321.085938 610.957031 " fill-opacity="1" fill-rule="nonzero"/><path fill="#f1a03c" d="M 1284.492188 599.183594 C 1284.152344 597.882812 1283.402344 596.449219 1282.171875 594.914062 C 1281.113281 593.617188 1280.089844 592.796875 1279.132812 592.355469 C 1279.101562 591.875 1278.964844 591.398438 1278.863281 591.023438 C 1278.042969 588.496094 1275.550781 586.515625 1272.546875 586.003906 C 1271.898438 585.902344 1271.285156 585.867188 1270.667969 585.902344 C 1270.054688 583.207031 1268.792969 580.644531 1267.085938 579.144531 C 1266.0625 578.257812 1264.355469 577.265625 1262.101562 577.847656 C 1261.792969 577.4375 1261.453125 577.027344 1261.078125 576.6875 C 1258.378906 574.09375 1253.566406 572.523438 1249.265625 575.253906 L 1250.222656 576.753906 C 1253.703125 574.570312 1257.664062 575.832031 1259.882812 577.984375 C 1260.085938 578.1875 1260.257812 578.394531 1260.460938 578.597656 C 1259.644531 579.074219 1258.789062 579.722656 1257.902344 580.679688 C 1254.625 584.058594 1253.257812 586.757812 1253.941406 588.566406 C 1254.285156 589.453125 1255.070312 590 1256.128906 590.101562 C 1258.105469 590.273438 1261.007812 588.839844 1262.816406 585.765625 C 1263.945312 583.855469 1264.011719 581.601562 1263.160156 579.554688 C 1264.183594 579.449219 1265.140625 579.757812 1266.027344 580.542969 C 1267.496094 581.804688 1268.519531 584.023438 1269.03125 586.3125 C 1267.972656 586.652344 1267.085938 587.269531 1266.4375 588.121094 C 1263.738281 591.570312 1263.738281 594.984375 1265.242188 596.175781 C 1266.230469 596.960938 1267.972656 596.929688 1269.882812 594.472656 C 1271.078125 592.96875 1271.421875 590.410156 1271.113281 587.78125 C 1271.523438 587.78125 1271.933594 587.8125 1272.375 587.882812 C 1274.320312 588.222656 1276.574219 589.519531 1277.292969 591.707031 C 1277.324219 591.808594 1277.359375 591.875 1277.359375 591.980469 C 1276.675781 591.945312 1276.097656 592.046875 1275.585938 592.21875 C 1272.375 593.277344 1270.292969 597.507812 1270.191406 600.070312 C 1270.121094 601.671875 1270.875 602.253906 1271.316406 602.425781 C 1272.476562 602.902344 1273.945312 602.152344 1275.960938 600 C 1277.941406 597.917969 1278.828125 596.042969 1279.167969 594.472656 C 1279.75 594.878906 1280.328125 595.425781 1280.910156 596.175781 C 1281.730469 597.203125 1282.273438 598.125 1282.617188 598.976562 C 1281.21875 599.046875 1279.886719 599.863281 1278.691406 601.402344 C 1276.199219 604.574219 1276.949219 606.078125 1277.632812 606.691406 C 1278.828125 607.785156 1281.21875 607.339844 1282.957031 605.703125 C 1284.015625 604.710938 1284.800781 603.277344 1284.871094 601.503906 C 1288.078125 603.757812 1291.046875 610.515625 1292.070312 613.347656 L 1293.746094 612.734375 C 1293.199219 611.335938 1289.445312 601.230469 1284.492188 599.183594 Z M 1261.214844 584.742188 C 1259.710938 587.300781 1257.390625 588.292969 1256.195312 588.191406 C 1255.648438 588.15625 1255.582031 587.882812 1255.546875 587.8125 C 1255.511719 587.710938 1255.308594 586.925781 1256.367188 585.1875 C 1256.914062 584.332031 1257.765625 583.207031 1259.132812 581.804688 C 1259.917969 581.019531 1260.667969 580.40625 1261.382812 579.996094 C 1262.03125 581.429688 1262.167969 583.105469 1261.214844 584.742188 Z M 1268.382812 593.242188 C 1267.390625 594.472656 1266.539062 594.878906 1266.230469 594.640625 C 1265.683594 594.230469 1265.617188 592.355469 1267.015625 590.066406 C 1267.222656 589.761719 1267.460938 589.417969 1267.699219 589.078125 C 1268.074219 588.597656 1268.585938 588.222656 1269.203125 587.949219 C 1269.472656 590.167969 1269.203125 592.183594 1268.382812 593.242188 Z M 1274.558594 598.636719 C 1272.855469 600.445312 1272.070312 600.617188 1271.898438 600.648438 C 1271.523438 600 1272.339844 596.417969 1274.730469 594.503906 C 1275.585938 593.824219 1276.472656 593.550781 1277.359375 593.652344 C 1277.15625 595.222656 1276.234375 596.894531 1274.558594 598.636719 Z M 1281.660156 604.234375 C 1280.5 605.324219 1279.066406 605.53125 1278.757812 605.222656 C 1278.621094 605.085938 1278.621094 604.472656 1279.304688 603.3125 C 1279.476562 603.003906 1279.714844 602.699219 1279.988281 602.320312 C 1280.976562 601.058594 1281.96875 600.480469 1282.992188 600.582031 C 1283.164062 602.492188 1282.242188 603.6875 1281.660156 604.234375 Z M 1281.660156 604.234375 " fill-opacity="1" fill-rule="nonzero"/><path fill="#f1a03c" d="M 1318.765625 552.960938 C 1318.492188 551.664062 1317.742188 550.4375 1316.511719 549.34375 C 1314.15625 547.160156 1312.519531 547.738281 1311.90625 548.113281 C 1310.777344 548.761719 1310.265625 550.265625 1310.640625 551.765625 C 1311.050781 553.441406 1312.621094 555.28125 1315.796875 555.417969 C 1316.207031 555.453125 1316.582031 555.417969 1316.957031 555.386719 C 1316.375 557.332031 1314.671875 558.730469 1314.636719 558.765625 L 1315.726562 560.097656 C 1315.832031 559.992188 1318.425781 557.878906 1318.800781 554.90625 C 1319.996094 554.359375 1320.882812 553.371094 1321.328125 552.039062 C 1321.769531 550.675781 1321.734375 548.96875 1321.15625 547.226562 C 1322.351562 546.613281 1323.273438 545.726562 1323.820312 544.597656 C 1324.195312 543.777344 1324.535156 542.449219 1324.023438 540.671875 C 1324.875 540.296875 1325.628906 539.71875 1326.207031 539 C 1326.6875 538.417969 1327.710938 536.816406 1327.09375 534.628906 C 1328.769531 532.035156 1327.914062 527.394531 1322.179688 522.476562 L 1321.054688 523.777344 C 1325.285156 527.394531 1326.34375 530.570312 1326.039062 532.515625 C 1325.558594 531.796875 1324.910156 531.082031 1324.023438 530.296875 C 1320.78125 527.460938 1319.585938 527.394531 1318.867188 527.667969 C 1318.355469 527.871094 1318.050781 528.316406 1317.980469 528.929688 C 1317.777344 530.707031 1319.894531 534.152344 1322.078125 535.585938 C 1323.203125 536.335938 1324.433594 536.441406 1325.492188 535.960938 C 1325.492188 535.960938 1325.523438 535.960938 1325.523438 535.960938 C 1325.523438 536.679688 1325.320312 537.328125 1324.84375 537.90625 C 1324.433594 538.386719 1323.921875 538.796875 1323.339844 539.070312 C 1322.863281 538.214844 1322.214844 537.257812 1321.292969 536.234375 C 1319.140625 533.914062 1317.433594 532.925781 1316.171875 533.300781 C 1315.523438 533.503906 1315.078125 534.015625 1314.941406 534.765625 C 1314.671875 536.199219 1315.589844 538.625 1317.8125 540.261719 C 1319.074219 541.183594 1320.746094 541.457031 1322.351562 541.183594 C 1322.625 542.175781 1322.589844 543.097656 1322.214844 543.882812 C 1321.871094 544.597656 1321.222656 545.214844 1320.4375 545.65625 C 1319.585938 544.019531 1318.289062 542.480469 1316.480469 541.253906 C 1314.566406 539.957031 1313.101562 539.683594 1312.109375 540.398438 C 1311.289062 541.015625 1311.050781 542.175781 1311.460938 543.574219 C 1312.074219 545.621094 1313.988281 547.875 1316.820312 548.046875 C 1317.777344 548.113281 1318.699219 548.011719 1319.550781 547.808594 C 1319.996094 549.171875 1320.03125 550.46875 1319.6875 551.492188 C 1319.550781 552.074219 1319.210938 552.585938 1318.765625 552.960938 Z M 1315.898438 553.710938 C 1313.101562 553.578125 1312.453125 551.871094 1312.316406 551.355469 C 1312.109375 550.605469 1312.316406 549.855469 1312.757812 549.582031 C 1312.792969 549.582031 1312.792969 549.546875 1312.828125 549.546875 C 1313.40625 549.308594 1314.328125 549.683594 1315.320312 550.605469 C 1316.375 551.5625 1316.957031 552.585938 1317.09375 553.679688 C 1316.753906 553.710938 1316.34375 553.710938 1315.898438 553.710938 Z M 1323.066406 534.1875 C 1321.222656 532.957031 1319.824219 530.296875 1319.722656 529.339844 C 1320.097656 529.476562 1321.054688 529.921875 1322.929688 531.59375 C 1323.953125 532.480469 1324.707031 533.402344 1325.117188 534.253906 C 1324.535156 534.664062 1323.785156 534.664062 1323.066406 534.1875 Z M 1318.867188 538.898438 C 1317.503906 537.875 1316.753906 536.472656 1316.648438 535.519531 C 1316.617188 535.144531 1316.683594 534.972656 1316.683594 534.9375 C 1316.683594 534.9375 1317.605469 534.800781 1320.03125 537.429688 C 1320.710938 538.148438 1321.257812 538.863281 1321.667969 539.582031 C 1320.644531 539.648438 1319.621094 539.445312 1318.867188 538.898438 Z M 1316.957031 546.304688 C 1314.839844 546.203125 1313.507812 544.292969 1313.132812 543.0625 C 1312.929688 542.34375 1313.03125 541.867188 1313.167969 541.765625 C 1313.167969 541.765625 1313.203125 541.765625 1313.203125 541.730469 C 1313.40625 541.628906 1314.125 541.664062 1315.589844 542.617188 C 1317.058594 543.609375 1318.152344 544.871094 1318.902344 546.167969 C 1318.289062 546.304688 1317.640625 546.375 1316.957031 546.304688 Z M 1316.957031 546.304688 " fill-opacity="1" fill-rule="nonzero"/><path fill="#f1a03c" d="M 1330.097656 654.175781 C 1332.898438 655.0625 1331.875 650.929688 1331.875 650.929688 C 1331.875 650.929688 1331.429688 648.679688 1330.097656 649.019531 C 1328.769531 649.363281 1327.300781 653.285156 1330.097656 654.175781 Z M 1330.097656 654.175781 " fill-opacity="1" fill-rule="nonzero"/><path fill="#f1a03c" d="M 1244.113281 538.042969 C 1240.457031 537.53125 1240.082031 539.921875 1241.6875 541.628906 C 1243.292969 543.335938 1245.03125 543.675781 1247.355469 541.628906 C 1249.640625 539.582031 1244.113281 538.042969 1244.113281 538.042969 Z M 1244.113281 538.042969 " fill-opacity="1" fill-rule="nonzero"/><path fill="#f1a03c" d="M 1294.085938 561.769531 C 1292.992188 562.964844 1288.898438 569.109375 1291.765625 569.789062 C 1294.632812 570.472656 1296.375 563.476562 1296.375 563.476562 C 1296.917969 561.769531 1295.210938 560.574219 1294.085938 561.769531 Z M 1294.085938 561.769531 " fill-opacity="1" fill-rule="nonzero"/><g clip-path="url(#a011d25b3f)"><path fill="#f1a03c" d="M 1241.550781 596.585938 C 1241.550781 596.585938 1235.40625 593.582031 1234.722656 596.585938 C 1234.042969 599.589844 1237.453125 602.835938 1241.550781 602.457031 C 1245.648438 602.082031 1245.375 597.851562 1241.550781 596.585938 Z M 1241.550781 596.585938 " fill-opacity="1" fill-rule="nonzero"/></g><path fill="#f1a03c" d="M 1342.25 564.5 C 1345.769531 563.78125 1340.613281 557.195312 1340.613281 557.195312 C 1338.976562 554.703125 1337.027344 556.921875 1337.027344 558.082031 C 1337.027344 559.277344 1338.734375 565.214844 1342.25 564.5 Z M 1342.25 564.5 " fill-opacity="1" fill-rule="nonzero"/><g clip-path="url(#a15e736a13)"><path fill="#f1a03c" d="M 1358.570312 710.089844 L 1343.34375 667.25 C 1342.867188 665.882812 1341.535156 665.03125 1340.101562 665.167969 C 1339.179688 665.269531 1338.191406 665.472656 1337.132812 665.78125 C 1334.433594 666.601562 1331.429688 668.066406 1328.152344 670.21875 C 1328.121094 670.253906 1328.085938 670.253906 1328.050781 670.285156 L 1328.699219 671.277344 L 1328.015625 670.285156 C 1324.261719 672.746094 1321.601562 675.851562 1320.371094 677.488281 C 1319.449219 678.683594 1319.515625 680.355469 1320.507812 681.484375 L 1346.894531 711.25 C 1347.132812 711.523438 1347.441406 711.660156 1347.78125 711.660156 L 1357.441406 711.660156 C 1357.816406 711.660156 1358.191406 711.453125 1358.433594 711.148438 C 1358.671875 710.839844 1358.707031 710.464844 1358.570312 710.089844 Z M 1346.824219 684.113281 L 1349.011719 690.222656 C 1346.585938 693.089844 1344.027344 696.980469 1342.046875 702.203125 L 1338.359375 698.074219 C 1340.679688 691.417969 1344.027344 686.910156 1346.824219 684.113281 Z M 1335.765625 695.136719 L 1332.421875 691.347656 C 1335.289062 682.164062 1340.066406 676.773438 1343.242188 674.042969 L 1345.527344 680.527344 C 1342.492188 683.328125 1338.597656 687.96875 1335.765625 695.136719 Z M 1340.339844 667.554688 C 1340.679688 667.523438 1340.988281 667.726562 1341.125 668.066406 L 1342.046875 670.628906 C 1338.734375 673.1875 1333.273438 678.648438 1329.828125 688.414062 L 1326.140625 684.28125 C 1328.527344 676.941406 1332.148438 672.097656 1335.082031 669.125 C 1336.039062 668.683594 1336.960938 668.339844 1337.847656 668.101562 C 1338.734375 667.792969 1339.589844 667.625 1340.339844 667.554688 Z M 1322.25 678.992188 C 1323.136719 677.863281 1324.738281 675.953125 1326.925781 674.109375 C 1325.695312 676.191406 1324.535156 678.582031 1323.511719 681.347656 L 1322.25 679.945312 C 1322.042969 679.675781 1322.042969 679.265625 1322.25 678.992188 Z M 1344.605469 705.105469 C 1346.175781 700.394531 1348.257812 696.777344 1350.34375 694.011719 L 1352.355469 699.675781 C 1350.71875 702.101562 1349.078125 705.070312 1347.746094 708.621094 Z M 1351.160156 709.304688 C 1351.980469 707.253906 1352.867188 705.445312 1353.824219 703.84375 L 1355.769531 709.304688 Z M 1351.160156 709.304688 " fill-opacity="1" fill-rule="nonzero"/></g><path fill="#f1a03c" d="M 140.109375 330.109375 C 141.472656 337.480469 141.140625 338.09375 134.390625 340.703125 C 141.457031 339.285156 142.046875 339.632812 144.550781 346.667969 C 143.191406 339.296875 143.523438 338.683594 150.269531 336.074219 C 143.203125 337.492188 142.613281 337.144531 140.109375 330.109375 " fill-opacity="1" fill-rule="nonzero"/><path fill="#f1a03c" d="M 139.085938 339.824219 C 141.601562 339.824219 142.609375 341.003906 143.953125 344.4375 C 143.230469 339.707031 143.902344 338.496094 148.195312 336.679688 C 143.621094 337.445312 142.445312 336.773438 140.710938 332.339844 C 141.433594 337.070312 140.761719 338.28125 136.46875 340.097656 C 137.5 339.925781 138.359375 339.824219 139.085938 339.824219 Z M 144.351562 346.738281 C 141.878906 339.78125 141.414062 339.507812 134.433594 340.910156 L 134.316406 340.507812 C 140.988281 337.925781 141.25 337.441406 139.902344 330.148438 L 140.308594 330.039062 C 142.785156 336.996094 143.246094 337.269531 150.230469 335.867188 L 150.347656 336.269531 C 143.671875 338.851562 143.410156 339.335938 144.757812 346.628906 L 144.351562 346.738281 " fill-opacity="1" fill-rule="nonzero"/><path fill="#f1a03c" d="M 184.070312 362.464844 C 185.863281 369.734375 185.566406 370.371094 178.984375 373.40625 C 185.957031 371.539062 186.566406 371.84375 189.476562 378.707031 C 187.6875 371.441406 187.980469 370.804688 194.5625 367.765625 C 187.589844 369.636719 186.980469 369.328125 184.070312 362.464844 " fill-opacity="1" fill-rule="nonzero"/><path fill="#f1a03c" d="M 184.070312 372.214844 C 186.265625 372.214844 187.300781 373.386719 188.75 376.523438 C 187.75 371.84375 188.34375 370.59375 192.523438 368.503906 C 188.003906 369.566406 186.789062 368.964844 184.796875 364.648438 C 185.800781 369.328125 185.203125 370.582031 181.027344 372.667969 C 182.257812 372.378906 183.246094 372.214844 184.070312 372.214844 Z M 189.285156 378.789062 C 186.40625 372.003906 185.925781 371.761719 179.042969 373.609375 L 178.898438 373.214844 C 185.410156 370.210938 185.640625 369.710938 183.863281 362.515625 L 184.261719 362.382812 C 187.140625 369.167969 187.621094 369.410156 194.507812 367.5625 L 194.652344 367.957031 C 188.140625 370.960938 187.90625 371.460938 189.683594 378.65625 L 189.285156 378.789062 " fill-opacity="1" fill-rule="nonzero"/><g clip-path="url(#c244cf69ac)"><path fill="#f1a03c" d="M 139.398438 367.148438 C 137.007812 374.226562 136.421875 374.585938 129.332031 373.289062 C 136.121094 375.78125 136.464844 376.390625 135.21875 383.785156 C 137.609375 376.703125 138.195312 376.347656 145.285156 377.644531 C 138.496094 375.152344 138.152344 374.542969 139.398438 367.148438 " fill-opacity="1" fill-rule="nonzero"/><path fill="#f1a03c" d="M 131.417969 373.859375 C 135.742188 375.601562 136.429688 376.796875 135.78125 381.542969 C 137.449219 377.082031 138.613281 376.386719 143.199219 377.074219 C 138.875 375.332031 138.1875 374.132812 138.835938 369.390625 C 137.167969 373.851562 136.003906 374.546875 131.417969 373.859375 Z M 135.417969 383.851562 L 135.011719 383.746094 C 136.242188 376.429688 135.976562 375.949219 129.261719 373.484375 L 129.371094 373.078125 C 136.375 374.363281 136.832031 374.082031 139.199219 367.082031 L 139.605469 367.1875 C 138.371094 374.503906 138.640625 374.984375 145.355469 377.449219 L 145.246094 377.851562 C 138.242188 376.570312 137.78125 376.851562 135.417969 383.851562 " fill-opacity="1" fill-rule="nonzero"/></g><path fill="#f1a03c" d="M 233.496094 279.417969 C 231.710938 286.691406 231.160156 287.101562 223.988281 286.457031 C 230.964844 288.316406 231.355469 288.894531 230.738281 296.371094 C 232.523438 289.097656 233.074219 288.691406 240.246094 289.332031 C 233.273438 287.472656 232.882812 286.894531 233.496094 279.417969 " fill-opacity="1" fill-rule="nonzero"/><path fill="#f1a03c" d="M 226.113281 286.832031 C 230.566406 288.171875 231.355469 289.300781 231.109375 294.085938 C 232.394531 289.488281 233.492188 288.691406 238.121094 288.957031 C 233.667969 287.617188 232.878906 286.488281 233.125 281.703125 C 231.84375 286.300781 230.738281 287.101562 226.113281 286.832031 Z M 230.945312 296.421875 L 230.53125 296.355469 C 231.136719 288.953125 230.828125 288.5 223.933594 286.660156 L 224.007812 286.246094 C 231.09375 286.882812 231.527344 286.5625 233.292969 279.367188 L 233.707031 279.4375 C 233.097656 286.839844 233.40625 287.289062 240.300781 289.128906 L 240.226562 289.542969 C 233.140625 288.90625 232.707031 289.230469 230.945312 296.421875 " fill-opacity="1" fill-rule="nonzero"/><g clip-path="url(#99db7532d8)"><path fill="#f1a03c" d="M 268.699219 271.519531 C 271.21875 278.550781 270.988281 279.214844 264.753906 282.960938 C 271.492188 280.332031 272.132812 280.570312 275.726562 287.074219 C 273.203125 280.042969 273.429688 279.378906 279.667969 275.632812 C 272.925781 278.261719 272.289062 278.023438 268.699219 271.519531 " fill-opacity="1" fill-rule="nonzero"/></g><g clip-path="url(#3d874a6be4)"><path fill="#f1a03c" d="M 270.261719 281.179688 C 272.085938 281.179688 273.179688 282.296875 274.78125 284.988281 C 273.308594 280.441406 273.769531 279.132812 277.710938 276.597656 C 273.328125 278.144531 272.0625 277.679688 269.640625 273.605469 C 271.113281 278.152344 270.648438 279.464844 266.710938 282 C 268.195312 281.476562 269.324219 281.179688 270.261719 281.179688 Z M 275.539062 287.175781 C 271.988281 280.75 271.488281 280.558594 264.832031 283.160156 L 264.644531 282.78125 C 270.816406 279.074219 270.996094 278.550781 268.496094 271.59375 L 268.882812 271.417969 C 272.433594 277.847656 272.933594 278.035156 279.59375 275.4375 L 279.777344 275.816406 C 273.605469 279.519531 273.425781 280.042969 275.921875 287.003906 L 275.539062 287.175781 " fill-opacity="1" fill-rule="nonzero"/></g><path fill="#f1a03c" d="M 181.667969 326.488281 C 178.390625 333.171875 177.765625 333.441406 170.90625 331.167969 C 177.3125 334.585938 177.574219 335.238281 175.390625 342.386719 C 178.667969 335.707031 179.296875 335.433594 186.152344 337.710938 C 179.746094 334.292969 179.484375 333.640625 181.667969 326.488281 " fill-opacity="1" fill-rule="nonzero"/><path fill="#f1a03c" d="M 172.90625 332.023438 C 176.960938 334.351562 177.488281 335.636719 176.234375 340.253906 C 178.460938 336.058594 179.703125 335.53125 184.15625 336.851562 C 180.097656 334.523438 179.570312 333.238281 180.824219 328.621094 C 178.601562 332.816406 177.355469 333.34375 172.90625 332.023438 Z M 175.582031 342.480469 L 175.1875 342.328125 C 177.351562 335.246094 177.148438 334.734375 170.804688 331.351562 L 170.972656 330.964844 C 177.746094 333.214844 178.238281 333 181.480469 326.398438 L 181.871094 326.550781 C 179.710938 333.628906 179.914062 334.144531 186.253906 337.523438 L 186.085938 337.910156 C 179.3125 335.664062 178.820312 335.875 175.582031 342.480469 " fill-opacity="1" fill-rule="nonzero"/><path fill="#f1a03c" d="M 225.28125 349.847656 C 226.125 357.300781 225.75 357.890625 218.835938 359.980469 C 225.984375 359.097656 226.550781 359.492188 228.554688 366.699219 C 227.710938 359.246094 228.085938 358.65625 235 356.566406 C 227.851562 357.445312 227.285156 357.054688 225.28125 349.847656 " fill-opacity="1" fill-rule="nonzero"/><path fill="#f1a03c" d="M 222.828125 359.433594 C 225.914062 359.433594 226.90625 360.570312 228.113281 364.429688 C 227.722656 359.652344 228.476562 358.496094 232.886719 357.011719 C 228.269531 357.429688 227.144531 356.671875 225.722656 352.117188 C 226.113281 356.890625 225.359375 358.046875 220.949219 359.535156 C 221.652344 359.472656 222.273438 359.433594 222.828125 359.433594 Z M 228.351562 366.753906 C 226.371094 359.625 225.925781 359.320312 218.863281 360.191406 L 218.777344 359.78125 C 225.613281 357.710938 225.90625 357.25 225.070312 349.871094 L 225.484375 349.789062 C 227.464844 356.917969 227.910156 357.226562 234.972656 356.355469 L 235.058594 356.765625 C 228.222656 358.832031 227.929688 359.296875 228.765625 366.675781 L 228.351562 366.753906 " fill-opacity="1" fill-rule="nonzero"/><path fill="#f1a03c" d="M 228.476562 310.113281 C 223.980469 315.972656 223.3125 316.109375 217.03125 312.445312 C 222.652344 317.132812 222.785156 317.828125 219.269531 324.375 C 223.765625 318.515625 224.429688 318.378906 230.710938 322.046875 C 225.09375 317.355469 224.964844 316.660156 228.476562 310.113281 " fill-opacity="1" fill-rule="nonzero"/><path fill="#f1a03c" d="M 218.835938 313.710938 C 222.359375 316.839844 222.621094 318.207031 220.5 322.472656 C 223.488281 318.824219 224.808594 318.558594 228.910156 320.78125 C 225.390625 317.652344 225.125 316.28125 227.246094 312.015625 C 224.257812 315.667969 222.9375 315.929688 218.835938 313.710938 Z M 219.4375 324.503906 L 219.085938 324.277344 C 222.5625 317.792969 222.460938 317.246094 216.898438 312.605469 L 217.140625 312.261719 C 223.34375 315.882812 223.867188 315.773438 228.308594 309.984375 L 228.660156 310.210938 C 225.183594 316.695312 225.285156 317.242188 230.847656 321.882812 L 230.605469 322.226562 C 224.402344 318.609375 223.882812 318.714844 219.4375 324.503906 " fill-opacity="1" fill-rule="nonzero"/><path fill="#f1a03c" d="M 196.496094 291.726562 C 197.707031 299.121094 197.363281 299.730469 190.566406 302.191406 C 197.660156 300.925781 198.242188 301.285156 200.605469 308.375 C 199.390625 300.980469 199.734375 300.371094 206.535156 297.90625 C 199.4375 299.175781 198.855469 298.8125 196.496094 291.726562 " fill-opacity="1" fill-rule="nonzero"/><path fill="#f1a03c" d="M 195.09375 301.414062 C 197.742188 301.414062 198.742188 302.589844 200.050781 306.132812 C 199.421875 301.386719 200.117188 300.191406 204.445312 298.46875 C 199.855469 299.136719 198.695312 298.4375 197.046875 293.964844 C 197.675781 298.714844 196.984375 299.910156 192.652344 301.632812 C 193.601562 301.496094 194.40625 301.414062 195.09375 301.414062 Z M 200.402344 308.441406 C 198.066406 301.433594 197.609375 301.148438 190.601562 302.402344 L 190.492188 301.996094 C 197.21875 299.558594 197.488281 299.082031 196.285156 291.761719 L 196.695312 291.65625 C 199.027344 298.667969 199.488281 298.953125 206.496094 297.699219 L 206.605469 298.105469 C 199.878906 300.539062 199.609375 301.019531 200.8125 308.34375 L 200.402344 308.441406 " fill-opacity="1" fill-rule="nonzero"/><path fill="#f1a03c" d="M 214.105469 404.085938 C 207.472656 406.988281 206.824219 406.777344 202.988281 400.425781 C 205.773438 407.34375 205.570312 408.019531 199.480469 412.019531 C 206.117188 409.117188 206.761719 409.328125 210.597656 415.679688 C 207.8125 408.757812 208.019531 408.082031 214.105469 404.085938 " fill-opacity="1" fill-rule="nonzero"/><path fill="#f1a03c" d="M 205.089844 410.011719 C 206.8125 410.011719 207.929688 411.097656 209.578125 413.636719 C 207.933594 409.152344 208.347656 407.824219 212.1875 405.125 C 207.867188 406.855469 206.582031 406.441406 204.007812 402.46875 C 205.652344 406.953125 205.242188 408.28125 201.402344 410.980469 C 202.957031 410.355469 204.121094 410.011719 205.089844 410.011719 Z M 210.417969 415.789062 C 206.625 409.511719 206.117188 409.34375 199.5625 412.214844 L 199.363281 411.84375 C 205.390625 407.886719 205.550781 407.355469 202.792969 400.503906 L 203.167969 400.316406 C 206.960938 406.59375 207.464844 406.761719 214.023438 403.890625 L 214.222656 404.261719 C 208.195312 408.21875 208.035156 408.75 210.792969 415.601562 L 210.417969 415.789062 " fill-opacity="1" fill-rule="nonzero"/><g clip-path="url(#42c497b900)"><path fill="#f1a03c" d="M 142.53125 417.25 C 144.609375 424.433594 144.339844 425.082031 137.882812 428.398438 C 144.773438 426.230469 145.394531 426.511719 148.574219 433.246094 C 146.496094 426.058594 146.765625 425.410156 153.222656 422.09375 C 146.332031 424.261719 145.710938 423.980469 142.53125 417.25 " fill-opacity="1" fill-rule="nonzero"/></g><g clip-path="url(#b95ae2e31e)"><path fill="#f1a03c" d="M 143.160156 426.984375 C 145.191406 426.984375 146.25 428.140625 147.761719 431.097656 C 146.578125 426.460938 147.121094 425.183594 151.210938 422.917969 C 146.742188 424.171875 145.503906 423.625 143.34375 419.398438 C 144.527344 424.03125 143.984375 425.308594 139.894531 427.574219 C 141.238281 427.199219 142.289062 426.984375 143.160156 426.984375 Z M 148.386719 433.335938 C 145.242188 426.679688 144.753906 426.457031 137.945312 428.601562 L 137.785156 428.210938 C 144.171875 424.929688 144.386719 424.421875 142.328125 417.308594 L 142.71875 417.15625 C 145.863281 423.816406 146.351562 424.035156 153.160156 421.894531 L 153.320312 422.28125 C 146.933594 425.5625 146.71875 426.070312 148.777344 433.1875 L 148.386719 433.335938 " fill-opacity="1" fill-rule="nonzero"/></g></svg>